<?xml version="1.0" encoding="UTF-8"?>
<svg id="Layer_1" data-name="Layer 1" xmlns="http://www.w3.org/2000/svg" viewBox="0 0 180 180">
  <defs>
    <style>
      .cls-1 {
        fill: #1d1b1c;
      }
    </style>
  </defs>
  <rect class="cls-1" x="78.8" y="25.74" width="15.21" height="35.35" transform="translate(129.82 -42.99) rotate(90)"/>
  <rect class="cls-1" x="78.8" y="122.75" width="15.21" height="35.35" transform="translate(226.83 54.01) rotate(90)"/>
  <rect class="cls-1" x="78.8" y="80.46" width="15.21" height="71.41" transform="translate(202.58 29.76) rotate(90)"/>
  <rect class="cls-1" x="80.01" y="31.96" width="15.21" height="71.41" transform="translate(155.28 -19.95) rotate(90)"/>
  <rect class="cls-1" x="78.8" y="38.18" width="15.21" height="107.48" transform="translate(178.33 5.51) rotate(90)"/>
  <rect class="cls-1" x="80.01" y="25.74" width="15.21" height="35.35" transform="translate(131.03 -44.2) rotate(90)"/>
  <rect class="cls-1" x="80.01" y="122.75" width="15.21" height="35.35" transform="translate(228.04 52.81) rotate(90)"/>
  <rect class="cls-1" x="80.01" y="80.46" width="15.21" height="71.41" transform="translate(203.78 28.56) rotate(90)"/>
  <rect class="cls-1" x="81.21" y="31.96" width="15.21" height="71.41" transform="translate(156.49 -21.15) rotate(90)"/>
  <rect class="cls-1" x="80.01" y="38.18" width="15.21" height="107.48" transform="translate(179.53 4.3) rotate(90)"/>
</svg>