<?xml version="1.0" encoding="UTF-8"?>
<svg id="Layer_1" data-name="Layer 1" xmlns="http://www.w3.org/2000/svg" viewBox="0 0 192 192">
  <defs>
    <style>
      .cls-1 {
        letter-spacing: 0em;
      }

      .cls-2 {
        letter-spacing: -.01em;
      }

      .cls-3 {
        fill: #1d1b1c;
      }

      .cls-4 {
        fill: #0e1114;
        font-family: CelexGrotesk-Bold, 'Celex Grotesk';
        font-size: 37.62px;
        font-weight: 700;
      }
    </style>
  </defs>
  <path class="cls-3" d="M59.14,83.59h-8.03v-4.36h28.4v4.36h-2.89c-.33,0-.64-.12-.89-.34l-1.55-1.39c-.61-.55-1.41-.85-2.23-.85h-10.77c-.3,0-.56.19-.65.46l-.52,1.49c-.13.37-.48.62-.87.62Z"/>
  <path class="cls-3" d="M100.22,73.98h28.41v4.36h-10.9c-.4,0-.75-.25-.88-.62l-.51-1.49c-.1-.28-.36-.47-.66-.47h-7.9c-.83,0-1.62.31-2.23.85l-1.55,1.39c-.25.22-.56.34-.89.34h-2.9v-4.36Z"/>
  <rect class="cls-3" x="92.14" y="94.99" width="24.08" height=".94"/>
  <path class="cls-3" d="M59.98,88.84h-4.96v-4.36h28.4v4.36h-2.89c-.33,0-.64-.12-.89-.34l-1.55-1.39c-.62-.55-1.41-.85-2.23-.85h-13.84c-.3,0-.56.19-.65.46l-.52,1.49c-.13.38-.48.62-.87.62Z"/>
  <path class="cls-3" d="M79.76,91.52h-16.48c-.29,0-.55.19-.65.46l-.51,1.49c-.13.38-.48.63-.88.63h-2.32v-4.37h28.4v4.37h-2.89c-.33,0-.64-.13-.89-.34l-1.55-1.39c-.61-.55-1.4-.85-2.23-.85Z"/>
  <path class="cls-3" d="M62.82,64.32h28.4v3.52h-2.89c-.33,0-.64-.12-.89-.34l-1.55-1.39c-.61-.55-1.41-.85-2.23-.85h-1.96c-.3,0-.55.19-.65.46l-.51,1.49c-.13.38-.48.63-.88.63h-16.84v-3.52Z"/>
  <path class="cls-3" d="M95.03,67.83h-2.89v-3.52h28.4v3.52h-16.84c-.39,0-.74-.25-.87-.63l-.51-1.49c-.1-.28-.36-.46-.66-.46h-1.96c-.83,0-1.62.31-2.23.85l-1.55,1.39c-.25.22-.56.34-.89.34Z"/>
  <path class="cls-3" d="M72.89,73.09h-13.97v-4.36h28.4v4.36h-2.89c-.33,0-.64-.12-.89-.34l-1.55-1.39c-.61-.55-1.4-.85-2.23-.85h-4.83c-.29,0-.56.19-.65.46l-.51,1.5c-.13.37-.49.62-.88.62Z"/>
  <path class="cls-3" d="M96.05,89.73h28.4v4.37h-2.32c-.39,0-.75-.25-.87-.63l-.51-1.49c-.1-.28-.36-.46-.66-.46h-16.48c-.83,0-1.62.3-2.23.85l-1.55,1.39c-.24.21-.56.34-.89.34h-2.89v-4.37Z"/>
  <path class="cls-3" d="M66.19,78.34h-10.9v-4.36h28.4v4.36h-2.89c-.33,0-.64-.12-.89-.34l-1.55-1.39c-.61-.55-1.4-.85-2.23-.85h-7.9c-.29,0-.56.19-.66.47l-.51,1.49c-.13.37-.48.62-.87.62Z"/>
  <path class="cls-3" d="M132.26,79.23v4.36h-8.03c-.4,0-.75-.25-.88-.62l-.51-1.49c-.09-.28-.36-.46-.65-.46h-10.77c-.83,0-1.62.3-2.23.85l-1.55,1.39c-.25.22-.56.34-.89.34h-2.89v-4.36h28.4Z"/>
  <rect class="cls-3" x="67.15" y="94.99" width="24.08" height=".94"/>
  <path class="cls-3" d="M99.96,84.48h28.4v4.36h-4.96c-.4,0-.75-.25-.88-.62l-.51-1.49c-.09-.28-.36-.46-.65-.46h-13.84c-.82,0-1.62.3-2.23.85l-1.55,1.39c-.25.22-.56.34-.89.34h-2.89v-4.36Z"/>
  <path class="cls-3" d="M96.05,68.73h28.4v4.36h-13.97c-.39,0-.74-.25-.87-.62l-.51-1.5c-.1-.28-.36-.46-.66-.46h-4.83c-.83,0-1.62.31-2.23.85l-1.55,1.39c-.24.22-.56.34-.89.34h-2.89v-4.36Z"/>
  <text class="cls-4" transform="translate(31.61 126.48)"><tspan class="cls-1" x="0" y="0">KINUI</tspan><tspan class="cls-2" x="99.97" y="0">T</tspan></text>
</svg>