<?xml version="1.0" encoding="UTF-8"?>
<svg id="Layer_1" data-name="Layer 1" xmlns="http://www.w3.org/2000/svg" viewBox="0 0 512 512">
  <defs>
    <style>
      .cls-1 {
        fill: #0e1114;
        font-family: CelexGrotesk-Bold, 'Celex Grotesk';
        font-size: 121.35px;
        font-weight: 700;
      }

      .cls-2 {
        fill: #1d1b1c;
      }

      .cls-3 {
        letter-spacing: 0em;
      }

      .cls-4 {
        letter-spacing: -.01em;
      }
    </style>
  </defs>
  <path class="cls-2" d="M144.27,219.52h-25.91v-14.07h91.61v14.07h-9.32c-1.06,0-2.06-.39-2.86-1.09l-5.01-4.48c-1.97-1.78-4.55-2.75-7.19-2.75h-34.74c-.95,0-1.8.6-2.1,1.5l-1.67,4.81c-.41,1.2-1.55,2.01-2.82,2.01Z"/>
  <path class="cls-2" d="M276.76,188.52h91.63v14.07h-35.16c-1.29,0-2.41-.81-2.84-2.01l-1.66-4.81c-.32-.9-1.16-1.52-2.12-1.52h-25.47c-2.66,0-5.22.99-7.19,2.75l-5.01,4.5c-.79.7-1.82,1.09-2.86,1.09h-9.34v-14.07Z"/>
  <rect class="cls-2" x="250.71" y="256.28" width="77.66" height="3.03"/>
  <path class="cls-2" d="M146.97,236.47h-16v-14.07h91.61v14.07h-9.32c-1.06,0-2.08-.39-2.87-1.09l-4.99-4.48c-1.99-1.78-4.55-2.75-7.21-2.75h-44.63c-.95,0-1.8.6-2.1,1.5l-1.67,4.81c-.41,1.22-1.55,2.01-2.82,2.01Z"/>
  <path class="cls-2" d="M210.79,245.09h-53.16c-.93,0-1.78.6-2.1,1.5l-1.66,4.81c-.42,1.22-1.55,2.03-2.84,2.03h-7.47v-14.08h91.61v14.08h-9.32c-1.06,0-2.08-.41-2.87-1.09l-5.01-4.49c-1.97-1.78-4.53-2.75-7.19-2.75Z"/>
  <path class="cls-2" d="M156.15,157.35h91.61v11.35h-9.32c-1.06,0-2.08-.39-2.86-1.09l-5.01-4.49c-1.97-1.76-4.55-2.75-7.19-2.75h-6.33c-.95,0-1.78.6-2.1,1.5l-1.66,4.81c-.42,1.22-1.55,2.03-2.84,2.03h-54.32v-11.35Z"/>
  <path class="cls-2" d="M260.03,168.7h-9.32v-11.35h91.61v11.35h-54.32c-1.27,0-2.4-.81-2.82-2.03l-1.66-4.81c-.32-.9-1.16-1.5-2.11-1.5h-6.31c-2.66,0-5.22.99-7.19,2.75l-5.01,4.49c-.79.71-1.82,1.09-2.87,1.09Z"/>
  <path class="cls-2" d="M188.62,185.64h-45.05v-14.07h91.61v14.07h-9.32c-1.06,0-2.08-.39-2.87-1.09l-5.01-4.5c-1.97-1.76-4.53-2.75-7.19-2.75h-15.58c-.95,0-1.8.6-2.1,1.5l-1.66,4.83c-.42,1.2-1.57,2.01-2.84,2.01Z"/>
  <path class="cls-2" d="M263.31,239.34h91.61v14.08h-7.49c-1.27,0-2.41-.81-2.82-2.03l-1.66-4.81c-.32-.9-1.16-1.5-2.11-1.5h-53.14c-2.66,0-5.22.97-7.21,2.75l-5.01,4.49c-.78.69-1.8,1.09-2.86,1.09h-9.32v-14.08Z"/>
  <path class="cls-2" d="M166.99,202.58h-35.16v-14.07h91.61v14.07h-9.32c-1.06,0-2.08-.39-2.87-1.09l-5.01-4.5c-1.97-1.76-4.53-2.75-7.19-2.75h-25.47c-.95,0-1.8.62-2.11,1.52l-1.66,4.81c-.41,1.2-1.55,2.01-2.82,2.01Z"/>
  <path class="cls-2" d="M380.11,205.46v14.07h-25.89c-1.29,0-2.41-.81-2.84-2.01l-1.66-4.81c-.3-.9-1.15-1.5-2.1-1.5h-34.74c-2.66,0-5.22.97-7.19,2.75l-5.01,4.48c-.79.71-1.82,1.09-2.87,1.09h-9.32v-14.07h91.61Z"/>
  <rect class="cls-2" x="170.11" y="256.28" width="77.66" height="3.03"/>
  <path class="cls-2" d="M275.91,222.4h91.61v14.07h-16c-1.29,0-2.41-.79-2.84-2.01l-1.66-4.81c-.3-.9-1.15-1.5-2.1-1.5h-44.64c-2.64,0-5.22.97-7.19,2.75l-5.01,4.48c-.79.7-1.8,1.09-2.86,1.09h-9.32v-14.07Z"/>
  <path class="cls-2" d="M263.31,171.58h91.61v14.07h-45.07c-1.27,0-2.4-.81-2.82-2.01l-1.66-4.83c-.32-.9-1.16-1.5-2.12-1.5h-15.56c-2.66,0-5.22.99-7.21,2.75l-5.01,4.5c-.78.71-1.8,1.09-2.86,1.09h-9.32v-14.07Z"/>
  <text class="cls-1" transform="translate(55.49 357.85)"><tspan class="cls-3" x="0" y="0">KINUI</tspan><tspan class="cls-4" x="322.43" y="0">T</tspan></text>
</svg>