<?xml version="1.0" encoding="UTF-8"?>
<svg id="Layer_1" data-name="Layer 1" xmlns="http://www.w3.org/2000/svg" viewBox="0 0 160 40">
  <defs>
    <style>
      .cls-1 {
        letter-spacing: -.01em;
      }

      .cls-2 {
        fill: #1d1b1c;
      }

      .cls-3 {
        font-family: CelexGrotesk-Bold, 'Celex Grotesk';
        font-size: 21.69px;
        font-weight: 700;
      }

      .cls-4 {
        letter-spacing: 0em;
      }
    </style>
  </defs>
  <path class="cls-2" d="M55.86,8.86v2.38h-11.38c-.27,0-.51-.17-.59-.42l-.35-1.01c-.07-.19-.24-.31-.44-.31h-1.32c-.56,0-1.09.21-1.51.58l-1.05.94c-.16.15-.38.23-.6.23h-1.95v-2.38h19.2Z"/>
  <path class="cls-2" d="M58.5,11.84v2.95h-9.44c-.27,0-.5-.17-.59-.42l-.35-1.01c-.07-.19-.24-.31-.44-.31h-3.26c-.56,0-1.09.21-1.51.58l-1.05.94c-.16.15-.38.23-.6.23h-1.95v-2.95h19.2Z"/>
  <path class="cls-2" d="M61.32,15.39v2.95h-7.37c-.27,0-.51-.17-.59-.42l-.35-1.01c-.07-.19-.24-.31-.44-.31h-5.34c-.56,0-1.09.21-1.51.58l-1.05.94c-.16.15-.38.23-.6.23h-1.95v-2.95h19.2Z"/>
  <path class="cls-2" d="M63.78,18.94v2.95h-5.43c-.27,0-.51-.17-.59-.42l-.35-1.01c-.06-.19-.24-.31-.44-.31h-7.28c-.56,0-1.09.21-1.51.58l-1.05.94c-.16.15-.38.23-.6.23h-1.95v-2.95h19.2Z"/>
  <path class="cls-2" d="M61.14,22.49v2.95h-3.35c-.27,0-.51-.17-.59-.42l-.35-1.01c-.06-.19-.24-.31-.44-.31h-9.35c-.56,0-1.09.21-1.51.58l-1.05.94c-.16.15-.38.23-.6.23h-1.95v-2.95h19.2Z"/>
  <path class="cls-2" d="M58.5,26.04v2.95h-1.57c-.27,0-.51-.17-.59-.42l-.35-1.01c-.06-.19-.24-.31-.44-.31h-11.14c-.56,0-1.09.21-1.51.58l-1.05.94c-.16.15-.38.23-.6.23h-1.95v-2.95h19.2Z"/>
  <rect class="cls-2" x="36.67" y="29.59" width="16.27" height=".63"/>
  <path class="cls-2" d="M16.85,8.86v2.38s11.38,0,11.38,0c.27,0,.51-.17.59-.42l.35-1.01c.07-.19.24-.31.44-.31h1.32c.56,0,1.09.21,1.51.58l1.05.94c.16.15.38.23.6.23h1.95s0-2.38,0-2.38h-19.2Z"/>
  <path class="cls-2" d="M14.21,11.84v2.95s9.44,0,9.44,0c.27,0,.5-.17.59-.42l.35-1.01c.07-.19.24-.31.44-.31h3.26c.56,0,1.09.21,1.51.58l1.05.94c.16.15.38.23.6.23h1.95s0-2.95,0-2.95H14.21Z"/>
  <path class="cls-2" d="M11.75,15.39v2.95s7.37,0,7.37,0c.27,0,.51-.17.59-.42l.35-1.01c.07-.19.24-.31.44-.31h5.34c.56,0,1.09.21,1.51.58l1.05.94c.16.15.38.23.6.23h1.95s0-2.95,0-2.95H11.75Z"/>
  <path class="cls-2" d="M8.93,18.94v2.95s5.43,0,5.43,0c.27,0,.51-.17.59-.42l.35-1.01c.06-.19.24-.31.44-.31h7.28c.56,0,1.09.21,1.51.58l1.05.94c.16.15.38.23.6.23h1.95s0-2.95,0-2.95H8.93Z"/>
  <path class="cls-2" d="M11.57,22.49v2.95s3.35,0,3.35,0c.27,0,.51-.17.59-.42l.35-1.01c.06-.19.24-.31.44-.31h9.35c.56,0,1.09.21,1.51.58l1.05.94c.16.15.38.23.6.23h1.95s0-2.95,0-2.95H11.57Z"/>
  <path class="cls-2" d="M14.21,26.04v2.95s1.57,0,1.57,0c.27,0,.51-.17.59-.42l.35-1.01c.06-.19.24-.31.44-.31h11.14c.56,0,1.09.21,1.51.58l1.05.94c.16.15.38.23.6.23h1.95s0-2.95,0-2.95H14.21Z"/>
  <rect class="cls-2" x="19.78" y="29.59" width="16.27" height=".63"/>
  <text class="cls-3" transform="translate(70.76 26.71)"><tspan class="cls-4" x="0" y="0">KINUI</tspan><tspan class="cls-1" x="57.62" y="0">T</tspan></text>
</svg>