<?xml version="1.0" encoding="UTF-8"?>
<svg id="Layer_1" data-name="Layer 1" xmlns="http://www.w3.org/2000/svg" viewBox="0 0 200 60">
  <defs>
    <style>
      .cls-1 {
        fill: #0e1114;
      }

      .cls-2 {
        fill: #f6f6f6;
      }
    </style>
  </defs>
  <rect class="cls-1" width="200" height="60"/>
  <path class="cls-2" d="M77.76,18.22v2.76h-13.21c-.31,0-.59-.2-.69-.49l-.4-1.17c-.08-.22-.28-.36-.51-.36h-1.54c-.65,0-1.27.24-1.75.67l-1.22,1.09c-.19.17-.44.27-.7.27h-2.27v-2.76h22.28Z"/>
  <path class="cls-2" d="M80.83,21.68v3.42h-10.96c-.31,0-.59-.2-.69-.49l-.4-1.17c-.08-.22-.28-.36-.51-.36h-3.79c-.65,0-1.27.24-1.75.67l-1.22,1.09c-.19.17-.44.27-.7.27h-2.27v-3.42h22.28Z"/>
  <path class="cls-2" d="M84.1,25.8v3.42h-8.55c-.31,0-.59-.2-.69-.49l-.4-1.17c-.08-.22-.28-.36-.51-.36h-6.2c-.65,0-1.27.24-1.75.67l-1.22,1.09c-.19.17-.44.27-.7.27h-2.27v-3.42h22.28Z"/>
  <path class="cls-2" d="M86.95,29.92v3.42h-6.3c-.31,0-.59-.2-.69-.49l-.4-1.17c-.08-.22-.28-.36-.51-.36h-8.45c-.65,0-1.27.24-1.75.67l-1.22,1.09c-.19.17-.44.27-.7.27h-2.27v-3.42h22.28Z"/>
  <path class="cls-2" d="M83.89,34.04v3.42h-3.89c-.31,0-.59-.2-.69-.49l-.4-1.17c-.08-.22-.28-.36-.51-.36h-10.86c-.65,0-1.27.24-1.75.67l-1.22,1.09c-.19.17-.44.27-.7.27h-2.27v-3.42h22.28Z"/>
  <path class="cls-2" d="M80.83,38.16v3.42h-1.82c-.31,0-.59-.2-.69-.49l-.4-1.17c-.08-.22-.28-.36-.51-.36h-12.93c-.65,0-1.27.24-1.75.67l-1.22,1.09c-.19.17-.44.27-.7.27h-2.27v-3.42h22.28Z"/>
  <rect class="cls-2" x="55.48" y="42.28" width="18.89" height=".73"/>
  <path class="cls-2" d="M32.49,18.22v2.76s13.21,0,13.21,0c.31,0,.59-.2.69-.49l.4-1.17c.08-.22.28-.36.51-.36h1.54c.65,0,1.27.24,1.75.67l1.22,1.09c.19.17.44.27.7.27h2.27s0-2.76,0-2.76h-22.28Z"/>
  <path class="cls-2" d="M29.42,21.68v3.42s10.96,0,10.96,0c.31,0,.59-.2.69-.49l.4-1.17c.08-.22.28-.36.51-.36h3.79c.65,0,1.27.24,1.75.67l1.22,1.09c.19.17.44.27.7.27h2.27s0-3.42,0-3.42h-22.28Z"/>
  <path class="cls-2" d="M26.57,25.8v3.42s8.55,0,8.55,0c.31,0,.59-.2.69-.49l.4-1.17c.08-.22.28-.36.51-.36h6.2c.65,0,1.27.24,1.75.67l1.22,1.09c.19.17.44.27.7.27h2.27s0-3.42,0-3.42h-22.28Z"/>
  <path class="cls-2" d="M23.3,29.92v3.42s6.3,0,6.3,0c.31,0,.59-.2.69-.49l.4-1.17c.08-.22.28-.36.51-.36h8.45c.65,0,1.27.24,1.75.67l1.22,1.09c.19.17.44.27.7.27h2.27s0-3.42,0-3.42h-22.28Z"/>
  <path class="cls-2" d="M26.36,34.04v3.42s3.89,0,3.89,0c.31,0,.59-.2.69-.49l.4-1.17c.08-.22.28-.36.51-.36h10.86c.65,0,1.27.24,1.75.67l1.22,1.09c.19.17.44.27.7.27h2.27s0-3.42,0-3.42h-22.28Z"/>
  <path class="cls-2" d="M29.42,38.16v3.42s1.82,0,1.82,0c.31,0,.59-.2.69-.49l.4-1.17c.08-.22.28-.36.51-.36h12.93c.65,0,1.27.24,1.75.67l1.22,1.09c.19.17.44.27.7.27h2.27s0-3.42,0-3.42h-22.28Z"/>
  <rect class="cls-2" x="35.88" y="42.28" width="18.89" height=".73"/>
  <g>
    <path class="cls-2" d="M100.73,21.98v7.53l5.9-7.53h4.43l-5.81,7,6.33,9.96h-4.36l-4.42-7.16-2.06,2.51v4.66h-3.71v-16.96h3.71Z"/>
    <path class="cls-2" d="M117.27,21.99v16.95h-3.64v-16.95h3.64Z"/>
    <path class="cls-2" d="M125.25,21.98l6.34,11.2v-11.2h3.6v16.96h-3.81l-6.6-11.46v11.46h-3.6v-16.96h4.07Z"/>
    <path class="cls-2" d="M141.69,38.25c-1.83-1.16-2.8-3.18-2.8-5.6v-10.67h3.75v10.24c0,2.47,1.04,3.7,3.13,3.7s3.16-1.24,3.16-3.72v-10.22h3.73v10.67c0,1.97-.69,3.67-1.77,4.75-1.09,1.09-2.27,1.72-5.12,1.72-1.81,0-3.17-.29-4.08-.87Z"/>
    <path class="cls-2" d="M159.99,21.99v16.95h-3.64v-16.95h3.64Z"/>
    <path class="cls-2" d="M167.25,25.31h-4.94v-3.33h13.61v3.33h-4.96v13.63h-3.71v-13.63Z"/>
  </g>
</svg>